<svg width="933" height="273" viewBox="0 0 933 273" fill="none" xmlns="http://www.w3.org/2000/svg">
<path d="M311.085 208.765L270.391 108.996H294.77L321.409 181.76L348.228 108.996H372.052L331.547 208.765H311.085Z" fill="black"/>
<path d="M391.678 93.8061V72.2368H416.057V93.8061H391.678ZM392.441 208.006V108.996H415.321V208.006H392.441Z" fill="black"/>
<path d="M478.912 209.89C463.408 209.89 449.405 204.952 436.902 195.075L447.05 179.7C458.176 187.826 468.991 191.89 479.494 191.89C484.367 191.89 488.118 190.951 490.744 189.075C493.494 187.075 494.869 184.45 494.869 181.2V180.825C494.909 179.222 494.447 177.647 493.546 176.32C492.663 175.073 490.912 173.823 488.291 172.57C486.411 171.629 484.47 170.815 482.481 170.135C481.354 169.632 478.666 168.75 474.416 167.488L472.726 166.928C468.904 165.98 465.146 164.79 461.476 163.363C458.153 161.945 454.953 160.253 451.911 158.303C448.75 156.155 446.173 153.254 444.411 149.863C442.647 146.486 441.764 142.548 441.764 138.048V137.673C441.764 128.423 445.077 121.046 451.704 115.543C458.469 110.04 466.909 107.289 477.023 107.289C489.903 107.289 502.029 111.04 513.403 118.543L504.403 134.673C494.15 128.42 484.835 125.293 476.459 125.293C472.209 125.293 468.826 126.232 466.311 128.108C463.797 129.985 462.547 132.298 462.561 135.048V135.423C462.561 137.673 463.748 139.732 466.122 141.599C468.375 143.281 470.833 144.669 473.437 145.729C476.06 146.726 479.873 147.976 484.876 149.479C488.646 150.626 492.341 152.003 495.941 153.604C499.243 155.021 502.387 156.78 505.321 158.854C508.528 160.924 511.169 163.759 513.006 167.104C514.771 170.354 515.653 174.106 515.653 178.359V178.734C515.653 188.734 512.215 196.422 505.338 201.799C498.462 207.175 489.653 209.872 478.912 209.89Z" fill="black"/>
<path d="M567.421 210.08C557.545 210.08 549.162 207.391 542.274 202.015C535.509 196.638 532.127 189.138 532.127 179.515V179.14C532.127 168.64 535.815 160.698 543.192 155.316C550.698 149.939 560.698 147.251 573.192 147.251C582.23 147.236 591.216 148.627 599.826 151.376V148.936C599.826 134.56 591.636 127.371 575.257 127.371C566.257 127.371 556.818 129.43 546.942 133.548L540.765 115.729C553.392 110.355 565.892 107.668 578.266 107.668C593.019 107.668 603.959 111.355 611.085 118.729C618.215 125.858 621.778 136.048 621.775 149.298V208.006H599.645V195.653C591.663 205.271 580.922 210.08 567.421 210.08ZM573.796 193.575C581.423 193.575 587.736 191.637 592.736 187.76C597.736 183.763 600.236 178.638 600.236 172.385V165.653C593.472 163.029 585.972 161.717 577.736 161.717C570.36 161.717 564.608 163.154 560.482 166.028C556.479 168.904 554.479 172.969 554.482 178.222V178.593C554.482 183.219 556.295 186.909 559.921 189.662C563.545 192.274 568.17 193.578 573.796 193.575Z" fill="black"/>
<path d="M648.791 208.006V108.996H671.666V124.181C679.922 112.678 690.238 106.927 702.615 106.927C713.742 106.927 722.368 110.365 728.495 117.242C734.748 124.006 737.873 133.196 737.87 144.811V208.006H715.18V151.755C715.18 144.002 713.303 138.064 709.55 133.94C705.927 129.687 700.739 127.561 693.986 127.561C687.233 127.561 681.791 129.749 677.662 134.126C673.659 138.502 671.657 144.504 671.657 152.13V208.006H648.791Z" fill="black"/>
<path d="M810.678 210.265C796.177 210.265 784.051 205.515 774.298 196.014C764.671 186.388 759.856 174.01 759.854 158.88V158.505C759.854 144.002 764.412 131.812 773.53 121.936C782.648 111.936 794.214 106.936 808.229 106.936C823.229 106.936 834.856 112.062 843.109 122.315C851.485 132.445 855.674 145.073 855.674 160.199C855.674 161.446 855.549 163.571 855.298 166.574H782.53C783.78 174.577 786.968 180.766 792.095 185.139C797.221 189.513 803.535 191.701 811.035 191.704C820.661 191.704 829.601 187.766 837.854 179.889L851.169 191.704C840.663 204.081 827.166 210.268 810.678 210.265ZM782.358 151.588H833.178C832.428 143.964 829.865 137.714 825.488 132.837C821.111 127.961 815.292 125.517 808.03 125.505C801.027 125.505 795.214 127.88 790.591 132.63C786.091 137.38 783.34 143.692 782.34 151.565L782.358 151.588Z" fill="black"/>
<path d="M911.648 209.704C892.648 209.704 883.146 200.014 883.143 180.635V128.501H870.578V108.996H883.143V81.8015H905.837V108.996H932.467V128.501H905.837V177.07C905.837 185.326 909.901 189.453 918.027 189.45C922.916 189.446 927.734 188.29 932.092 186.075V204.64C925.965 208.016 919.151 209.704 911.648 209.704Z" fill="black"/>
<path d="M25.8648 71.8794L153.754 72.2367L132.781 22.0922C124.597 2.5302 108.074 -7.53313 85.786 9.7391L7.92203 79.0927C4.74112 82.6751 9.96911 76.825 13.6574 74.8617C17.4197 72.8798 21.6125 71.8554 25.8648 71.8794Z" fill="#4FEEB9"/>
<path d="M247.19 236.541L186.889 91.1588C184.579 85.6013 180.7 80.8369 175.727 77.447C170.848 74.077 165.068 72.2523 159.139 72.2101L153.756 72.241L186.298 150.065C188.256 154.723 188.921 159.823 188.221 164.827C187.541 169.636 185.462 174.139 182.243 177.776L82.8807 270.477C80.7 269.991 78.584 269.251 76.5762 268.271C80.9502 270.783 85.9013 272.118 90.9454 272.144L224.235 272.515C228.492 272.535 232.689 271.508 236.456 269.524C240.132 267.57 243.241 264.699 245.482 261.19C247.738 257.624 249.065 253.55 249.343 249.34C249.627 244.964 248.89 240.583 247.19 236.541Z" fill="#1E43FB"/>
<path d="M2.89789 107.858L56.4396 236.912L63.022 252.958C64.1167 255.273 65.3881 257.5 66.825 259.62C69.4191 263.15 72.7258 266.096 76.531 268.267C78.5396 269.245 80.6554 269.985 82.8354 270.473L182.238 177.785C185.456 174.148 187.535 169.645 188.216 164.836C188.915 159.832 188.251 154.732 186.292 150.074L153.76 72.2413L25.8658 71.8795C21.6096 71.8567 17.4136 72.8841 13.6495 74.8707C9.97892 76.8246 6.87562 79.6939 4.64056 83.2003C2.37116 86.7662 1.03601 90.846 0.758171 95.0636C0.470767 99.4365 1.20325 103.816 2.89789 107.858Z" fill="#021FAB"/>
<path d="M151.698 160.537C158.132 140.959 146.535 119.563 125.797 112.748C105.058 105.934 83.0312 116.281 76.5978 135.86C70.1645 155.439 81.7609 176.834 102.499 183.649C123.238 190.463 145.265 180.116 151.698 160.537Z" fill="#4FEEB9"/>
<path d="M178.234 222.123H117.792C113.173 222.123 109.617 225.278 109.851 229.182C110.085 233.087 114.011 236.241 118.626 236.241H179.068C183.687 236.241 187.243 233.087 187.009 229.182C186.775 225.278 182.849 222.123 178.234 222.123Z" fill="#4FEEB9"/>
</svg>
