<svg width="933" height="272" viewBox="0 0 933 272" fill="none" xmlns="http://www.w3.org/2000/svg">
<path d="M311.085 207.984L270.391 108.216H294.77L321.409 180.98L348.228 108.216H372.052L331.547 207.984H311.085Z" fill="white"/>
<path d="M391.678 93.0258V71.4565H416.057V93.0258H391.678ZM392.441 207.226V108.216H415.321V207.226H392.441Z" fill="white"/>
<path d="M478.912 209.11C463.408 209.11 449.405 204.171 436.902 194.295L447.05 178.92C458.176 187.046 468.991 191.109 479.494 191.109C484.367 191.109 488.118 190.171 490.744 188.295C493.494 186.295 494.869 183.67 494.869 180.42V180.045C494.909 178.442 494.447 176.866 493.546 175.54C492.663 174.293 490.912 173.043 488.291 171.79C486.411 170.848 484.47 170.035 482.481 169.355C481.354 168.852 478.666 167.969 474.416 166.708L472.726 166.147C468.904 165.2 465.146 164.01 461.476 162.583C458.153 161.165 454.953 159.472 451.911 157.522C448.75 155.374 446.173 152.474 444.411 149.083C442.647 145.706 441.764 141.768 441.764 137.268V136.893C441.764 127.643 445.077 120.266 451.704 114.763C458.469 109.26 466.909 106.509 477.023 106.509C489.903 106.509 502.029 110.26 513.403 117.763L504.403 133.893C494.15 127.64 484.835 124.513 476.459 124.513C472.209 124.513 468.826 125.451 466.311 127.328C463.797 129.204 462.547 131.518 462.561 134.268V134.643C462.561 136.893 463.748 138.952 466.122 140.819C468.375 142.501 470.833 143.889 473.437 144.949C476.06 145.946 479.873 147.196 484.876 148.699C488.646 149.846 492.341 151.223 495.941 152.824C499.243 154.24 502.387 156 505.321 158.074C508.528 160.143 511.169 162.979 513.006 166.324C514.771 169.574 515.653 173.325 515.653 177.578V177.953C515.653 187.953 512.215 195.642 505.338 201.018C498.462 206.395 489.653 209.092 478.912 209.11Z" fill="white"/>
<path d="M567.421 209.299C557.545 209.299 549.162 206.611 542.274 201.234C535.509 195.858 532.127 188.358 532.127 178.734V178.359C532.127 167.859 535.815 159.918 543.192 154.535C550.698 149.159 560.698 146.471 573.192 146.471C582.23 146.455 591.216 147.847 599.826 150.596V148.156C599.826 133.779 591.636 126.591 575.257 126.591C566.257 126.591 556.818 128.65 546.942 132.768L540.765 114.948C553.392 109.575 565.892 106.888 578.266 106.888C593.019 106.888 603.959 110.575 611.085 117.948C618.215 125.078 621.778 135.268 621.775 148.518V207.226H599.645V194.873C591.663 204.49 580.922 209.299 567.421 209.299ZM573.796 192.795C581.423 192.795 587.736 190.856 592.736 186.98C597.736 182.983 600.236 177.858 600.236 171.605V164.872C593.472 162.249 585.972 160.937 577.736 160.937C570.36 160.937 564.608 162.374 560.482 165.247C556.479 168.124 554.479 172.189 554.482 177.442V177.812C554.482 182.439 556.295 186.128 559.921 188.881C563.545 191.493 568.17 192.798 573.796 192.795Z" fill="white"/>
<path d="M648.791 207.225V108.216H671.666V123.401C679.922 111.898 690.238 106.146 702.615 106.146C713.742 106.146 722.368 109.585 728.495 116.461C734.748 123.226 737.873 132.416 737.87 144.031V207.225H715.18V150.975C715.18 143.222 713.303 137.284 709.55 133.16C705.927 128.907 700.739 126.781 693.986 126.781C687.233 126.781 681.791 128.969 677.662 133.345C673.659 137.722 671.657 143.723 671.657 151.35V207.225H648.791Z" fill="white"/>
<path d="M810.678 209.484C796.177 209.484 784.051 204.734 774.298 195.234C764.671 185.608 759.856 173.229 759.854 158.1V157.725C759.854 143.222 764.412 131.032 773.53 121.155C782.648 111.155 794.214 106.155 808.229 106.155C823.229 106.155 834.856 111.282 843.109 121.535C851.485 131.664 855.674 144.292 855.674 159.419C855.674 160.666 855.549 162.791 855.298 165.794H782.53C783.78 173.797 786.968 179.985 792.095 184.359C797.221 188.733 803.535 190.921 811.035 190.924C820.661 190.924 829.601 186.986 837.854 179.109L851.169 190.924C840.663 203.3 827.166 209.487 810.678 209.484ZM782.358 150.807H833.178C832.428 143.184 829.865 136.934 825.488 132.057C821.111 127.181 815.292 124.736 808.03 124.725C801.027 124.725 795.214 127.1 790.591 131.85C786.091 136.6 783.34 142.912 782.34 150.785L782.358 150.807Z" fill="white"/>
<path d="M911.648 208.924C892.648 208.924 883.146 199.234 883.143 179.855V127.72H870.578V108.216H883.143V81.0212H905.837V108.216H932.467V127.72H905.837V176.29C905.837 184.546 909.901 188.672 918.027 188.669C922.916 188.666 927.734 187.51 932.092 185.294V203.859C925.965 207.236 919.151 208.924 911.648 208.924Z" fill="white"/>
<path d="M25.8648 71.0993L153.754 71.4567L132.781 21.3121C124.597 1.75017 108.074 -8.31316 85.786 8.95907L7.92203 78.3127C4.74112 81.8951 9.96911 76.045 13.6574 74.0817C17.4197 72.0997 21.6125 71.0754 25.8648 71.0993Z" fill="#4FEEB9"/>
<path d="M247.19 235.761L186.889 90.3786C184.579 84.8212 180.7 80.0567 175.727 76.6668C170.848 73.2968 165.068 71.4722 159.139 71.4299L153.756 71.4608L186.298 149.285C188.256 153.943 188.921 159.043 188.221 164.047C187.541 168.856 185.462 173.359 182.243 176.996L82.8807 269.697C80.7 269.211 78.584 268.47 76.5762 267.491C80.9502 270.003 85.9013 271.338 90.9454 271.364L224.235 271.735C228.492 271.755 232.689 270.728 236.456 268.744C240.132 266.789 243.241 263.919 245.482 260.41C247.738 256.844 249.065 252.77 249.343 248.56C249.627 244.184 248.89 239.803 247.19 235.761Z" fill="#1E43FB"/>
<path d="M2.89789 107.078L56.4396 236.132L63.022 252.178C64.1167 254.493 65.3881 256.72 66.825 258.84C69.4191 262.37 72.7258 265.316 76.531 267.487C78.5396 268.465 80.6554 269.205 82.8354 269.693L182.238 177.005C185.456 173.368 187.535 168.865 188.216 164.056C188.915 159.052 188.251 153.952 186.292 149.294L153.76 71.4613L25.8658 71.0995C21.6096 71.0767 17.4136 72.1041 13.6495 74.0907C9.97892 76.0445 6.87562 78.9139 4.64056 82.4203C2.37116 85.9861 1.03601 90.0659 0.758171 94.2836C0.470767 98.6565 1.20325 103.036 2.89789 107.078Z" fill="#021FAB"/>
<path d="M151.698 159.757C158.132 140.178 146.535 118.783 125.797 111.968C105.058 105.154 83.0312 115.501 76.5978 135.08C70.1645 154.659 81.7609 176.054 102.499 182.869C123.238 189.683 145.265 179.336 151.698 159.757Z" fill="#4FEEB9"/>
<path d="M178.234 221.343H117.792C113.173 221.343 109.617 224.498 109.851 228.402C110.085 232.307 114.011 235.461 118.626 235.461H179.068C183.687 235.461 187.243 232.307 187.009 228.402C186.775 224.498 182.849 221.343 178.234 221.343Z" fill="#4FEEB9"/>
</svg>
